<svg xmlns="http://www.w3.org/2000/svg" viewBox="0 0 64 64" role="img" aria-label="Poker Faces">
  <title>Poker Faces monochrome mark</title>
  <g fill="currentColor" color="#07100D">
    <g transform="translate(38 31) rotate(18) translate(-18 -26)">
      <rect x="1.25" y="1.25" width="33.5" height="49.5" rx="4" fill="none" stroke="currentColor" stroke-width="2.5"/>
      <path d="M14 12h16v5.2H19.4v4.6h9.2v4.8H19.4V40H14V12z"/>
    </g>
    <mask id="monoP">
      <rect width="64" height="64" fill="#fff"/>
      <g transform="translate(24 33) rotate(-11) translate(-18 -26)">
        <path fill="#000" d="M10.5 13h8c4.6 0 7.5 2.6 7.5 6.7 0 4.1-2.9 6.7-7.5 6.7H15.8v10.1h-5.3V13zm5.3 9.9h2.4c2.2 0 3.5-1.2 3.5-3.2S20.4 16.5 18.2 16.5h-2.4v6.4z"/>
        <circle cx="28.5" cy="11" r="1.7" fill="#000"/>
      </g>
    </mask>
    <g mask="url(#monoP)">
      <g transform="translate(24 33) rotate(-11) translate(-18 -26)">
        <rect x="0" y="0" width="36" height="52" rx="4.5"/>
      </g>
    </g>
  </g>
</svg>
